# xmcd CD database file
#
# Track frame offsets:
#	183
#	13245
#	27900
#	40438
#	62715
#	77208
#	91838
#	105443
#	126915
#	142758
#	169158
#	183033
#	203870
#	214320
#
# Disc length: 3030 seconds
#
# Revision: 0
# Processed by: cddbd v1.5.2PL0 Copyright (c) Steve Scherf et al.
# Submitted via: jetAudio 7
#
DISCID=bc0bd40e
DTITLE=Various Artist - Trucker Songs 2. Folge
DYEAR=1992
DGENRE=Truckersongs
TTITLE0=Die Frau mit dem Gurt
TTITLE1=Nur noch einmal nach Haus
TTITLE2=Truckstop Mama
TTITLE3=Dosenbier und Countrymusik
TTITLE4=Frei wie die Adler
TTITLE5=Ein Tag wie ein Freund
TTITLE6=Tausend Meilen
TTITLE7=Franky's Curry Station
TTITLE8=Und wieder zeigt dir einer einen Vogel
TTITLE9=Transit Cowboy
TTITLE10=Gebet eines Truckers
TTITLE11=Er ist ein Kerl
TTITLE12=König der Landstraße
TTITLE13=Ich bin Fernfahrer
EXTD=Regal Fernseher Nr. 19
EXTT0=
EXTT1=
EXTT2=
EXTT3=
EXTT4=
EXTT5=
EXTT6=
EXTT7=
EXTT8=
EXTT9=
EXTT10=
EXTT11=
EXTT12=
EXTT13=
PLAYORDER=
